inDegrees=no
num_controls=7
num_derivatives=13
num_iterations=135
num_multipliers=7
num_parameters=0
num_slacks=7
num_states=26
objective=4.978275
objective_accelerations=0.625366
objective_balance=0.112041
objective_effort=0.429775
objective_height=3.768110
objective_ligament=0.042984
solver_duration=2639.812337
status=Solve_Succeeded
success=true
DataType=double
version=3
OpenSimVersion=4.4-2022-07-23-0e9fedc
endheader
time	/jointset/ground_pelvis/pelvis_tilt/value	/jointset/ground_pelvis/pelvis_tx/value	/jointset/ground_pelvis/pelvis_ty/value	/jointset/hip_l/hip_flexion_l/value	/jointset/hip_l/hip_adduction_l/value	/jointset/hip_l/hip_rotation_l/value	/jointset/back/lumbar_extension/value	/jointset/patellofemoral_l/patellar_flexion_l/value	/jointset/knee_l/knee_flexion_l/value	/jointset/knee_l/knee_adduction_l/value	/jointset/knee_l/knee_rotation_l/value	/jointset/ankle_l/ankle_angle_l/value	/jointset/subtalar_l/subtalar_angle_l/value	/jointset/ground_pelvis/pelvis_tilt/speed	/jointset/ground_pelvis/pelvis_tx/speed	/jointset/ground_pelvis/pelvis_ty/speed	/jointset/hip_l/hip_flexion_l/speed	/jointset/hip_l/hip_adduction_l/speed	/jointset/hip_l/hip_rotation_l/speed	/jointset/back/lumbar_extension/speed	/jointset/patellofemoral_l/patellar_flexion_l/speed	/jointset/knee_l/knee_flexion_l/speed	/jointset/knee_l/knee_adduction_l/speed	/jointset/knee_l/knee_rotation_l/speed	/jointset/ankle_l/ankle_angle_l/speed	/jointset/subtalar_l/subtalar_angle_l/speed	/forceset/tau_hip_flexion_l	/forceset/tau_hip_adduction_l	/forceset/tau_hip_rotation_l	/forceset/tau_knee_flexion_l	/forceset/tau_ankle_angle_l	/forceset/tau_subtalar_angle_l	/forceset/tau_lumbar_extension	lambda_cid13_p0	lambda_cid13_p1	lambda_cid13_p2	lambda_cid13_p3	lambda_cid13_p4	lambda_cid13_p5	lambda_cid14_p0	/jointset/ground_pelvis/pelvis_tilt/accel	/jointset/ground_pelvis/pelvis_tx/accel	/jointset/ground_pelvis/pelvis_ty/accel	/jointset/hip_l/hip_flexion_l/accel	/jointset/hip_l/hip_adduction_l/accel	/jointset/hip_l/hip_rotation_l/accel	/jointset/back/lumbar_extension/accel	/jointset/patellofemoral_l/patellar_flexion_l/accel	/jointset/knee_l/knee_flexion_l/accel	/jointset/knee_l/knee_adduction_l/accel	/jointset/knee_l/knee_rotation_l/accel	/jointset/ankle_l/ankle_angle_l/accel	/jointset/subtalar_l/subtalar_angle_l/accel	gamma_cid13_p0	gamma_cid13_p1	gamma_cid13_p2	gamma_cid13_p3	gamma_cid13_p4	gamma_cid13_p5	gamma_cid14_p0
1.5	-0.3810011965072131	-0.0253634210847141	0.7464190721504442	1.262560394777532	-0.3039206389141738	0.02896142877778239	-0.3447918246334753	0.8940093394225473	0.8940093394225375	-0.1684494441473564	0.1744947135786516	0.1985868876536137	-0.01167173203344167	0.5291744932138923	0.1388590441016027	0.5784582338241459	-2.328853905076181	-0.04106262119227819	-0.8061106128911104	0.5660212904633255	-2.276671793466739	-2.276671793466739	0.02140012449361212	0.0005108063282588692	-0.6204267820470314	-0.1539724039566407	-0.2205589223714297	0.02563558322829575	-0.02354879320566475	-0.2377347421169566	0.05663006684761165	0.04010350754973514	0.2086266133392022	-19.45395588215311	-16.69506309935126	5.325411447373285	0.40727803678553	-605.1293495915348	-55.16427219256988	-15.83264258774932	0.6265925321140297	0.5744799290920997	-0.4498557625431204	-1.530076027900503	0.784003631211136	-0.4569336348252028	1.761635316665235	-1.579720882004207	-1.579720882004207	-0.03825686928018583	-0.01248713020573632	-0.7569694718537788	0.8780810864506905	4.391625506555176e-07	6.706678444258113e-07	-2.632013471655784e-06	-2.650734873867356e-07	5.049413421796248e-07	2.431929047113717e-07	4.434508454485812e-07
1.51	-0.3756783144323832	-0.02394617759970846	0.7521799810594186	1.239197597621534	-0.3042930142007884	0.02088042616622805	-0.3390447402015933	0.8711661962446652	0.8711661962446616	-0.1682413588582907	0.1744993012859982	0.1923453699034698	-0.01316892059189648	0.5353304486997498	0.1445766089264286	0.573601797386732	-2.343389188401645	-0.03337957822918355	-0.8099801281243755	0.5833269021808289	-2.291638299189123	-2.291638299189128	0.02019207850742034	0.0003915283711933791	-0.6277646492989887	-0.1454382681908186	-0.213480663786509	0.0252877965554362	-0.02363763299761052	-0.2350682571472733	0.05926354246244102	0.04006713109135192	0.2028893817300922	-18.35024607009218	-16.99243036097514	5.509789160870747	0.04216952537598563	-600.1193807210527	-55.43151979892354	-17.27099101632421	0.5994219720107768	0.5683853807916014	-0.5216891673025582	-1.367744496132437	0.7657278746694858	-0.3350577392627955	1.704720039458226	-1.407432135999607	-1.407432136000157	-0.1657526286305686	-0.01336706733367594	-0.7053759790096399	0.8453248182911407	4.756116877638173e-07	8.1811403503497e-07	-2.759935845828519e-06	-2.64306979163337e-07	5.379953523225068e-07	3.629646126092872e-07	4.746904953888417e-07
1.52	-0.3702960078196568	-0.02247216034213182	0.7578886952874263	1.215698949630029	-0.3045875044086097	0.01276410894800394	-0.3331266604645033	0.8481829246658303	0.8481829246658331	-0.1680460888621552	0.1745023524259992	0.1860338373553778	-0.01457991879336444	0.5410594007931743	0.1502137986158044	0.568019297630837	-2.356024072177631	-0.02548560543362145	-0.813173534225066	0.6002203515049456	-2.304697473657269	-2.304697473657277	0.01883706590755249	0.0002034928590617108	-0.634429741636663	-0.1367343325592695	-0.2064024052015882	0.0249400098825766	-0.02372647278955616	-0.23240177217759	0.06189701807727038	0.04003075463296867	0.1971521501209823	-17.25083496465576	-17.29108352962782	5.696703135482088	-0.3388939437743265	-595.1980592507723	-55.78862374322905	-18.7118986511516	0.5411918536274323	0.5584049020020413	-0.5950684262393164	-1.149996118004941	0.826189597704629	-0.3217118083103036	1.679202837987876	-1.198254631156409	-1.19825463115641	-0.06765019201542891	-0.02623864121870722	-0.622414488997167	0.9120410595961079	5.146804849331583e-07	9.600528381663542e-07	-2.894726145681689e-06	-2.664700542861845e-07	5.758074580467455e-07	4.863910530721533e-07	5.064735839580257e-07
1.53	-0.3648585381554624	-0.02094222843579946	0.7635380239846475	1.192083419930958	-0.3048022197075047	0.004618952542348385	-0.3270419567020875	0.8250786520175145	0.8250786520175177	-0.1678651192663888	0.1745034262330341	0.1796590286364654	-0.01590328472692158	0.5463551672510207	0.1557527829192186	0.5617302168703222	-2.366747244809001	-0.01742673038233327	-0.8157756781852766	0.6166348791519713	-2.315818485009806	-2.31581848500981	0.01736485887804248	1.51735369027453e-05	-0.6404097304802018	-0.1279139479699424	-0.199181137771315	0.02432997543801451	-0.02377782447210871	-0.2299197600611387	0.06471279461337769	0.0398638864884705	0.1912710172490151	-16.10250170271952	-17.53563954768974	5.86814722265242	-0.7051448548347964	-590.3508272971857	-56.10744234255662	-20.1498015951814	0.5119200512545573	0.5486203207525941	-0.6631333175485253	-0.9832134030585321	0.8007049732286246	-0.2166569553415368	1.609749454123889	-1.018349969563916	-1.01834996956327	-0.1857373108352428	-0.01392625207104249	-0.5674400390936357	0.8709515409206695	5.565326709173557e-07	1.096140042102603e-06	-3.03681361657032e-06	-2.717458117144183e-07	6.18675040326176e-07	6.137006468852793e-07	5.388340760704412e-07
1.54	-0.3593704806248113	-0.01935751166118466	0.7691210007909453	1.168370711392102	-0.3049353525530092	-0.003549663556002296	-0.3207956733179886	0.8018733041392209	0.8018733041392249	-0.1676986180114008	0.1745028573119762	0.1732280902377052	-0.0171376639381215	0.5511769740845196	0.1611707722722913	0.5547489194461694	-2.375459840134597	-0.009169114755536525	-0.8178654727640963	0.6325362758415561	-2.324912519652805	-2.324912519652804	0.01594339775187488	-0.0001250527595129488	-0.645655677606197	-0.1189369880878287	-0.1919598703410415	0.02371994099345241	-0.02382917615466123	-0.2274377479446873	0.06752857114948525	0.03969701834397234	0.1853898843770479	-14.95787857205859	-17.78225291668948	6.043014012499035	-1.091722719842395	-585.5887663775056	-56.52476322397467	-21.58098031188462	0.4463999287579374	0.5342059119337399	-0.7335117589668586	-0.7478806568507419	0.8659377128063428	-0.2192419320326354	1.57657664649972	-0.7928592892485901	-0.7928592892485899	-0.05750101134694558	-0.01662003606952028	-0.4756061454885046	0.9433561181534423	5.993396809558241e-07	1.242718383112723e-06	-3.185199222695708e-06	-2.779586943203207e-07	6.664461277545696e-07	7.47757225618399e-07	5.723823801609048e-07
1.55	-0.3538365484447163	-0.01771927758164541	0.774630792655327	1.144580813564765	-0.3049853013719399	-0.01173629053572666	-0.3143932052466653	0.7785870589644993	0.7785870589644993	-0.1675468306600846	0.17450108895639	0.1667482805832518	-0.01828194545949406	0.5555252368701685	0.1664496909452315	0.54710001793619	-2.38217293900786	-0.0008079912840471891	-0.8193442798851596	0.6478534924419835	-2.331987025534706	-2.331987025534711	0.01438755875431488	-0.0002364818926136882	-0.6501797082736867	-0.109915034803961	-0.1846412198796831	0.02281416550602675	-0.02383782059114564	-0.2251829162709604	0.07052731134221206	0.03938054282510632	0.1794069317817473	-13.76956252882733	-17.96522642749831	6.200518004251392	-1.451669099676727	-580.9781711362068	-56.88783948647025	-23.00234616029905	0.4164705850989887	0.5207240808733011	-0.796844762083121	-0.5809241146736166	0.8234698588773722	-0.09428378669814354	1.493717269645865	-0.6124481136419561	-0.6124481136427001	-0.208517146001221	-0.008906167368808945	-0.4218005370248039	0.8824210161017743	6.432468143611701e-07	1.401384338577521e-06	-3.340841375941705e-06	-2.852513081091889e-07	7.198669058980728e-07	8.895875043680327e-07	6.072992502260759e-07
1.56	-0.3482616474104387	-0.01602905646819693	0.7800608424215948	1.120734204826273	-0.3049511849172443	-0.01993412232357263	-0.3078406803887713	0.7552405283557625	0.7552405283557587	-0.1674113800591522	0.1744981059463852	0.1602270308201943	-0.01933584623150828	0.5593707449210423	0.1715681790541371	0.5388004998234259	-2.386802022365506	0.00764393996974459	-0.8201064343884213	0.6625476331556759	-2.336969606455849	-2.336969606455857	0.01267604767512717	-0.0003679836432512358	-0.6539436993270012	-0.1008608382161595	-0.1773225694183246	0.02190839001860107	-0.02384646502762997	-0.2229280845972335	0.07352605153493885	0.03906406730624028	0.1734239791864468	-12.5829287598035	-18.15136395171934	6.362479905067237	-1.842356070936567	-576.4289213344655	-57.3567066400939	-24.41167346745274	0.3458489818029127	0.5021197991268088	-0.8636350795237574	-0.3310775537275265	0.8840992692668312	-0.07591140847230651	1.451961469152719	-0.3744742970967155	-0.3744742970967131	-0.08863542767248425	-0.02063455957672975	-0.3235982226535423	0.9498047789401927	6.879705283931952e-07	1.568001984276855e-06	-3.493486806202615e-06	-2.921464221662492e-07	7.779968054625482e-07	1.037818238797099e-06	6.425723302386666e-07
